<?xml version="1.0" encoding="utf-8" standalone="no"?>
<!DOCTYPE svg PUBLIC "-//W3C//DTD SVG 1.1//EN"
  "http://www.w3.org/Graphics/SVG/1.1/DTD/svg11.dtd">
<svg xmlns:xlink="http://www.w3.org/1999/xlink" width="526.79952pt" height="260.39952pt" viewBox="0 0 526.79952 260.39952" xmlns="http://www.w3.org/2000/svg" version="1.1">
 <metadata>
  <rdf:RDF xmlns:dc="http://purl.org/dc/elements/1.1/" xmlns:cc="http://creativecommons.org/ns#" xmlns:rdf="http://www.w3.org/1999/02/22-rdf-syntax-ns#">
   <cc:Work>
    <dc:type rdf:resource="http://purl.org/dc/dcmitype/StillImage"/>
    <dc:date>2026-09-17T16:33:41.531322</dc:date>
    <dc:format>image/svg+xml</dc:format>
    <dc:creator>
     <cc:Agent>
      <dc:title>Matplotlib v3.11.0, https://matplotlib.org/</dc:title>
     </cc:Agent>
    </dc:creator>
   </cc:Work>
  </rdf:RDF>
 </metadata>
 <defs>
  <style type="text/css">*{stroke-linejoin: round; stroke-linecap: butt}</style>
 </defs>
 <g id="figure_1">
  <g id="patch_1">
   <path d="M 0 260.39952
L 526.79952 260.39952
L 526.79952 0
L 0 0
z
" style="fill: #292c31"/>
  </g>
  <g id="axes_1">
   <g id="patch_2">
    <path d="M 51.651523 219.198622
L 519.59952 219.198622
L 519.59952 23.685844
L 51.651523 23.685844
z
" style="fill: #292c31"/>
   </g>
   <g id="matplotlib.axis_1">
    <g id="xtick_1">
     <g id="line2d_1">
      <defs>
       <path id="m91a0884243" d="M 0 0
L 0 3.5
" style="stroke: #b2b8c0; stroke-width: 0.8"/>
      </defs>
      <g>
       <use xlink:href="#m91a0884243" x="72.709077" y="219.198622" style="fill: #b2b8c0; stroke: #b2b8c0; stroke-width: 0.8"/>
      </g>
     </g>
     <g id="text_1">
      <!-- 0.00 -->
      <g style="fill: #b2b8c0" transform="translate(59.906343 234.935926) scale(0.115 -0.115)">
       <defs>
        <path id="DejaVuSans-13" d="M 2034 4250
Q 1547 4250 1301 3770
Q 1056 3291 1056 2328
Q 1056 1369 1301 889
Q 1547 409 2034 409
Q 2525 409 2770 889
Q 3016 1369 3016 2328
Q 3016 3291 2770 3770
Q 2525 4250 2034 4250
z
M 2034 4750
Q 2819 4750 3233 4129
Q 3647 3509 3647 2328
Q 3647 1150 3233 529
Q 2819 -91 2034 -91
Q 1250 -91 836 529
Q 422 1150 422 2328
Q 422 3509 836 4129
Q 1250 4750 2034 4750
z
" transform="scale(0.015625)"/>
        <path id="DejaVuSans-11" d="M 684 794
L 1344 794
L 1344 0
L 684 0
L 684 794
z
" transform="scale(0.015625)"/>
       </defs>
       <use xlink:href="#DejaVuSans-13"/>
       <use xlink:href="#DejaVuSans-11" transform="translate(63.625 0)"/>
       <use xlink:href="#DejaVuSans-13" transform="translate(95.40625 0)"/>
       <use xlink:href="#DejaVuSans-13" transform="translate(159.03125 0)"/>
      </g>
     </g>
    </g>
    <g id="xtick_2">
     <g id="line2d_2">
      <g>
       <use xlink:href="#m91a0884243" x="125.911587" y="219.198622" style="fill: #b2b8c0; stroke: #b2b8c0; stroke-width: 0.8"/>
      </g>
     </g>
     <g id="text_2">
      <!-- 0.25 -->
      <g style="fill: #b2b8c0" transform="translate(113.108852 234.935926) scale(0.115 -0.115)">
       <defs>
        <path id="DejaVuSans-15" d="M 1228 531
L 3431 531
L 3431 0
L 469 0
L 469 531
Q 828 903 1448 1529
Q 2069 2156 2228 2338
Q 2531 2678 2651 2914
Q 2772 3150 2772 3378
Q 2772 3750 2511 3984
Q 2250 4219 1831 4219
Q 1534 4219 1204 4116
Q 875 4013 500 3803
L 500 4441
Q 881 4594 1212 4672
Q 1544 4750 1819 4750
Q 2544 4750 2975 4387
Q 3406 4025 3406 3419
Q 3406 3131 3298 2873
Q 3191 2616 2906 2266
Q 2828 2175 2409 1742
Q 1991 1309 1228 531
z
" transform="scale(0.015625)"/>
        <path id="DejaVuSans-18" d="M 691 4666
L 3169 4666
L 3169 4134
L 1269 4134
L 1269 2991
Q 1406 3038 1543 3061
Q 1681 3084 1819 3084
Q 2600 3084 3056 2656
Q 3513 2228 3513 1497
Q 3513 744 3044 326
Q 2575 -91 1722 -91
Q 1428 -91 1123 -41
Q 819 9 494 109
L 494 744
Q 775 591 1075 516
Q 1375 441 1709 441
Q 2250 441 2565 725
Q 2881 1009 2881 1497
Q 2881 1984 2565 2268
Q 2250 2553 1709 2553
Q 1456 2553 1204 2497
Q 953 2441 691 2322
L 691 4666
z
" transform="scale(0.015625)"/>
       </defs>
       <use xlink:href="#DejaVuSans-13"/>
       <use xlink:href="#DejaVuSans-11" transform="translate(63.625 0)"/>
       <use xlink:href="#DejaVuSans-15" transform="translate(95.40625 0)"/>
       <use xlink:href="#DejaVuSans-18" transform="translate(159.03125 0)"/>
      </g>
     </g>
    </g>
    <g id="xtick_3">
     <g id="line2d_3">
      <g>
       <use xlink:href="#m91a0884243" x="179.114097" y="219.198622" style="fill: #b2b8c0; stroke: #b2b8c0; stroke-width: 0.8"/>
      </g>
     </g>
     <g id="text_3">
      <!-- 0.50 -->
      <g style="fill: #b2b8c0" transform="translate(166.311362 234.935926) scale(0.115 -0.115)">
       <use xlink:href="#DejaVuSans-13"/>
       <use xlink:href="#DejaVuSans-11" transform="translate(63.625 0)"/>
       <use xlink:href="#DejaVuSans-18" transform="translate(95.40625 0)"/>
       <use xlink:href="#DejaVuSans-13" transform="translate(159.03125 0)"/>
      </g>
     </g>
    </g>
    <g id="xtick_4">
     <g id="line2d_4">
      <g>
       <use xlink:href="#m91a0884243" x="232.316607" y="219.198622" style="fill: #b2b8c0; stroke: #b2b8c0; stroke-width: 0.8"/>
      </g>
     </g>
     <g id="text_4">
      <!-- 0.75 -->
      <g style="fill: #b2b8c0" transform="translate(219.513872 234.935926) scale(0.115 -0.115)">
       <defs>
        <path id="DejaVuSans-1a" d="M 525 4666
L 3525 4666
L 3525 4397
L 1831 0
L 1172 0
L 2766 4134
L 525 4134
L 525 4666
z
" transform="scale(0.015625)"/>
       </defs>
       <use xlink:href="#DejaVuSans-13"/>
       <use xlink:href="#DejaVuSans-11" transform="translate(63.625 0)"/>
       <use xlink:href="#DejaVuSans-1a" transform="translate(95.40625 0)"/>
       <use xlink:href="#DejaVuSans-18" transform="translate(159.03125 0)"/>
      </g>
     </g>
    </g>
    <g id="xtick_5">
     <g id="line2d_5">
      <g>
       <use xlink:href="#m91a0884243" x="285.519117" y="219.198622" style="fill: #b2b8c0; stroke: #b2b8c0; stroke-width: 0.8"/>
      </g>
     </g>
     <g id="text_5">
      <!-- 1.00 -->
      <g style="fill: #b2b8c0" transform="translate(272.716382 234.935926) scale(0.115 -0.115)">
       <defs>
        <path id="DejaVuSans-14" d="M 794 531
L 1825 531
L 1825 4091
L 703 3866
L 703 4441
L 1819 4666
L 2450 4666
L 2450 531
L 3481 531
L 3481 0
L 794 0
L 794 531
z
" transform="scale(0.015625)"/>
       </defs>
       <use xlink:href="#DejaVuSans-14"/>
       <use xlink:href="#DejaVuSans-11" transform="translate(63.625 0)"/>
       <use xlink:href="#DejaVuSans-13" transform="translate(95.40625 0)"/>
       <use xlink:href="#DejaVuSans-13" transform="translate(159.03125 0)"/>
      </g>
     </g>
    </g>
    <g id="xtick_6">
     <g id="line2d_6">
      <g>
       <use xlink:href="#m91a0884243" x="338.721627" y="219.198622" style="fill: #b2b8c0; stroke: #b2b8c0; stroke-width: 0.8"/>
      </g>
     </g>
     <g id="text_6">
      <!-- 1.25 -->
      <g style="fill: #b2b8c0" transform="translate(325.918892 234.935926) scale(0.115 -0.115)">
       <use xlink:href="#DejaVuSans-14"/>
       <use xlink:href="#DejaVuSans-11" transform="translate(63.625 0)"/>
       <use xlink:href="#DejaVuSans-15" transform="translate(95.40625 0)"/>
       <use xlink:href="#DejaVuSans-18" transform="translate(159.03125 0)"/>
      </g>
     </g>
    </g>
    <g id="xtick_7">
     <g id="line2d_7">
      <g>
       <use xlink:href="#m91a0884243" x="391.924137" y="219.198622" style="fill: #b2b8c0; stroke: #b2b8c0; stroke-width: 0.8"/>
      </g>
     </g>
     <g id="text_7">
      <!-- 1.50 -->
      <g style="fill: #b2b8c0" transform="translate(379.121402 234.935926) scale(0.115 -0.115)">
       <use xlink:href="#DejaVuSans-14"/>
       <use xlink:href="#DejaVuSans-11" transform="translate(63.625 0)"/>
       <use xlink:href="#DejaVuSans-18" transform="translate(95.40625 0)"/>
       <use xlink:href="#DejaVuSans-13" transform="translate(159.03125 0)"/>
      </g>
     </g>
    </g>
    <g id="xtick_8">
     <g id="line2d_8">
      <g>
       <use xlink:href="#m91a0884243" x="445.126647" y="219.198622" style="fill: #b2b8c0; stroke: #b2b8c0; stroke-width: 0.8"/>
      </g>
     </g>
     <g id="text_8">
      <!-- 1.75 -->
      <g style="fill: #b2b8c0" transform="translate(432.323912 234.935926) scale(0.115 -0.115)">
       <use xlink:href="#DejaVuSans-14"/>
       <use xlink:href="#DejaVuSans-11" transform="translate(63.625 0)"/>
       <use xlink:href="#DejaVuSans-1a" transform="translate(95.40625 0)"/>
       <use xlink:href="#DejaVuSans-18" transform="translate(159.03125 0)"/>
      </g>
     </g>
    </g>
    <g id="xtick_9">
     <g id="line2d_9">
      <g>
       <use xlink:href="#m91a0884243" x="498.329157" y="219.198622" style="fill: #b2b8c0; stroke: #b2b8c0; stroke-width: 0.8"/>
      </g>
     </g>
     <g id="text_9">
      <!-- 2.00 -->
      <g style="fill: #b2b8c0" transform="translate(485.526422 234.935926) scale(0.115 -0.115)">
       <use xlink:href="#DejaVuSans-15"/>
       <use xlink:href="#DejaVuSans-11" transform="translate(63.625 0)"/>
       <use xlink:href="#DejaVuSans-13" transform="translate(95.40625 0)"/>
       <use xlink:href="#DejaVuSans-13" transform="translate(159.03125 0)"/>
      </g>
     </g>
    </g>
    <g id="text_10">
     <!-- Distance from the local fitted value -->
     <g style="fill: #edf0f2" transform="translate(184.106576 250.436825) scale(0.115 -0.115)">
      <defs>
       <path id="DejaVuSans-27" d="M 1259 4147
L 1259 519
L 2022 519
Q 2988 519 3436 956
Q 3884 1394 3884 2338
Q 3884 3275 3436 3711
Q 2988 4147 2022 4147
L 1259 4147
z
M 628 4666
L 1925 4666
Q 3281 4666 3915 4102
Q 4550 3538 4550 2338
Q 4550 1131 3912 565
Q 3275 0 1925 0
L 628 0
L 628 4666
z
" transform="scale(0.015625)"/>
       <path id="DejaVuSans-4c" d="M 603 3500
L 1178 3500
L 1178 0
L 603 0
L 603 3500
z
M 603 4863
L 1178 4863
L 1178 4134
L 603 4134
L 603 4863
z
" transform="scale(0.015625)"/>
       <path id="DejaVuSans-56" d="M 2834 3397
L 2834 2853
Q 2591 2978 2328 3040
Q 2066 3103 1784 3103
Q 1356 3103 1142 2972
Q 928 2841 928 2578
Q 928 2378 1081 2264
Q 1234 2150 1697 2047
L 1894 2003
Q 2506 1872 2764 1633
Q 3022 1394 3022 966
Q 3022 478 2636 193
Q 2250 -91 1575 -91
Q 1294 -91 989 -36
Q 684 19 347 128
L 347 722
Q 666 556 975 473
Q 1284 391 1588 391
Q 1994 391 2212 530
Q 2431 669 2431 922
Q 2431 1156 2273 1281
Q 2116 1406 1581 1522
L 1381 1569
Q 847 1681 609 1914
Q 372 2147 372 2553
Q 372 3047 722 3315
Q 1072 3584 1716 3584
Q 2034 3584 2315 3537
Q 2597 3491 2834 3397
z
" transform="scale(0.015625)"/>
       <path id="DejaVuSans-57" d="M 1172 4494
L 1172 3500
L 2356 3500
L 2356 3053
L 1172 3053
L 1172 1153
Q 1172 725 1289 603
Q 1406 481 1766 481
L 2356 481
L 2356 0
L 1766 0
Q 1100 0 847 248
Q 594 497 594 1153
L 594 3053
L 172 3053
L 172 3500
L 594 3500
L 594 4494
L 1172 4494
z
" transform="scale(0.015625)"/>
       <path id="DejaVuSans-44" d="M 2194 1759
Q 1497 1759 1228 1600
Q 959 1441 959 1056
Q 959 750 1161 570
Q 1363 391 1709 391
Q 2188 391 2477 730
Q 2766 1069 2766 1631
L 2766 1759
L 2194 1759
z
M 3341 1997
L 3341 0
L 2766 0
L 2766 531
Q 2569 213 2275 61
Q 1981 -91 1556 -91
Q 1019 -91 701 211
Q 384 513 384 1019
Q 384 1609 779 1909
Q 1175 2209 1959 2209
L 2766 2209
L 2766 2266
Q 2766 2663 2505 2880
Q 2244 3097 1772 3097
Q 1472 3097 1187 3025
Q 903 2953 641 2809
L 641 3341
Q 956 3463 1253 3523
Q 1550 3584 1831 3584
Q 2591 3584 2966 3190
Q 3341 2797 3341 1997
z
" transform="scale(0.015625)"/>
       <path id="DejaVuSans-51" d="M 3513 2113
L 3513 0
L 2938 0
L 2938 2094
Q 2938 2591 2744 2837
Q 2550 3084 2163 3084
Q 1697 3084 1428 2787
Q 1159 2491 1159 1978
L 1159 0
L 581 0
L 581 3500
L 1159 3500
L 1159 2956
Q 1366 3272 1645 3428
Q 1925 3584 2291 3584
Q 2894 3584 3203 3211
Q 3513 2838 3513 2113
z
" transform="scale(0.015625)"/>
       <path id="DejaVuSans-46" d="M 3122 3366
L 3122 2828
Q 2878 2963 2633 3030
Q 2388 3097 2138 3097
Q 1578 3097 1268 2742
Q 959 2388 959 1747
Q 959 1106 1268 751
Q 1578 397 2138 397
Q 2388 397 2633 464
Q 2878 531 3122 666
L 3122 134
Q 2881 22 2623 -34
Q 2366 -91 2075 -91
Q 1284 -91 818 406
Q 353 903 353 1747
Q 353 2603 823 3093
Q 1294 3584 2113 3584
Q 2378 3584 2631 3529
Q 2884 3475 3122 3366
z
" transform="scale(0.015625)"/>
       <path id="DejaVuSans-48" d="M 3597 1894
L 3597 1613
L 953 1613
Q 991 1019 1311 708
Q 1631 397 2203 397
Q 2534 397 2845 478
Q 3156 559 3463 722
L 3463 178
Q 3153 47 2828 -22
Q 2503 -91 2169 -91
Q 1331 -91 842 396
Q 353 884 353 1716
Q 353 2575 817 3079
Q 1281 3584 2069 3584
Q 2775 3584 3186 3129
Q 3597 2675 3597 1894
z
M 3022 2063
Q 3016 2534 2758 2815
Q 2500 3097 2075 3097
Q 1594 3097 1305 2825
Q 1016 2553 972 2059
L 3022 2063
z
" transform="scale(0.015625)"/>
       <path id="DejaVuSans-3" transform="scale(0.015625)"/>
       <path id="DejaVuSans-49" d="M 2375 4863
L 2375 4384
L 1825 4384
Q 1516 4384 1395 4259
Q 1275 4134 1275 3809
L 1275 3500
L 2222 3500
L 2222 3053
L 1275 3053
L 1275 0
L 697 0
L 697 3053
L 147 3053
L 147 3500
L 697 3500
L 697 3744
Q 697 4328 969 4595
Q 1241 4863 1831 4863
L 2375 4863
z
" transform="scale(0.015625)"/>
       <path id="DejaVuSans-55" d="M 2631 2963
Q 2534 3019 2420 3045
Q 2306 3072 2169 3072
Q 1681 3072 1420 2755
Q 1159 2438 1159 1844
L 1159 0
L 581 0
L 581 3500
L 1159 3500
L 1159 2956
Q 1341 3275 1631 3429
Q 1922 3584 2338 3584
Q 2397 3584 2469 3576
Q 2541 3569 2628 3553
L 2631 2963
z
" transform="scale(0.015625)"/>
       <path id="DejaVuSans-52" d="M 1959 3097
Q 1497 3097 1228 2736
Q 959 2375 959 1747
Q 959 1119 1226 758
Q 1494 397 1959 397
Q 2419 397 2687 759
Q 2956 1122 2956 1747
Q 2956 2369 2687 2733
Q 2419 3097 1959 3097
z
M 1959 3584
Q 2709 3584 3137 3096
Q 3566 2609 3566 1747
Q 3566 888 3137 398
Q 2709 -91 1959 -91
Q 1206 -91 779 398
Q 353 888 353 1747
Q 353 2609 779 3096
Q 1206 3584 1959 3584
z
" transform="scale(0.015625)"/>
       <path id="DejaVuSans-50" d="M 3328 2828
Q 3544 3216 3844 3400
Q 4144 3584 4550 3584
Q 5097 3584 5394 3201
Q 5691 2819 5691 2113
L 5691 0
L 5113 0
L 5113 2094
Q 5113 2597 4934 2840
Q 4756 3084 4391 3084
Q 3944 3084 3684 2787
Q 3425 2491 3425 1978
L 3425 0
L 2847 0
L 2847 2094
Q 2847 2600 2669 2842
Q 2491 3084 2119 3084
Q 1678 3084 1418 2786
Q 1159 2488 1159 1978
L 1159 0
L 581 0
L 581 3500
L 1159 3500
L 1159 2956
Q 1356 3278 1631 3431
Q 1906 3584 2284 3584
Q 2666 3584 2933 3390
Q 3200 3197 3328 2828
z
" transform="scale(0.015625)"/>
       <path id="DejaVuSans-4b" d="M 3513 2113
L 3513 0
L 2938 0
L 2938 2094
Q 2938 2591 2744 2837
Q 2550 3084 2163 3084
Q 1697 3084 1428 2787
Q 1159 2491 1159 1978
L 1159 0
L 581 0
L 581 4863
L 1159 4863
L 1159 2956
Q 1366 3272 1645 3428
Q 1925 3584 2291 3584
Q 2894 3584 3203 3211
Q 3513 2838 3513 2113
z
" transform="scale(0.015625)"/>
       <path id="DejaVuSans-4f" d="M 603 4863
L 1178 4863
L 1178 0
L 603 0
L 603 4863
z
" transform="scale(0.015625)"/>
       <path id="DejaVuSans-13af" d="M 3431 3500
L 3431 0
L 2853 0
L 2853 3053
L 1275 3053
L 1275 0
L 697 0
L 697 3053
L 147 3053
L 147 3500
L 697 3500
L 697 3744
Q 697 4316 967 4589
Q 1238 4863 1797 4863
L 2375 4863
L 2375 4384
L 1825 4384
Q 1516 4384 1395 4259
Q 1275 4134 1275 3809
L 1275 3500
L 3431 3500
z
M 2853 4856
L 3431 4856
L 3431 4128
L 2853 4128
L 2853 4856
z
" transform="scale(0.015625)"/>
       <path id="DejaVuSans-47" d="M 2906 2969
L 2906 4863
L 3481 4863
L 3481 0
L 2906 0
L 2906 525
Q 2725 213 2448 61
Q 2172 -91 1784 -91
Q 1150 -91 751 415
Q 353 922 353 1747
Q 353 2572 751 3078
Q 1150 3584 1784 3584
Q 2172 3584 2448 3432
Q 2725 3281 2906 2969
z
M 947 1747
Q 947 1113 1208 752
Q 1469 391 1925 391
Q 2381 391 2643 752
Q 2906 1113 2906 1747
Q 2906 2381 2643 2742
Q 2381 3103 1925 3103
Q 1469 3103 1208 2742
Q 947 2381 947 1747
z
" transform="scale(0.015625)"/>
       <path id="DejaVuSans-59" d="M 191 3500
L 800 3500
L 1894 563
L 2988 3500
L 3597 3500
L 2284 0
L 1503 0
L 191 3500
z
" transform="scale(0.015625)"/>
       <path id="DejaVuSans-58" d="M 544 1381
L 544 3500
L 1119 3500
L 1119 1403
Q 1119 906 1312 657
Q 1506 409 1894 409
Q 2359 409 2629 706
Q 2900 1003 2900 1516
L 2900 3500
L 3475 3500
L 3475 0
L 2900 0
L 2900 538
Q 2691 219 2414 64
Q 2138 -91 1772 -91
Q 1169 -91 856 284
Q 544 659 544 1381
z
M 1991 3584
L 1991 3584
z
" transform="scale(0.015625)"/>
      </defs>
      <use xlink:href="#DejaVuSans-27"/>
      <use xlink:href="#DejaVuSans-4c" transform="translate(77 0)"/>
      <use xlink:href="#DejaVuSans-56" transform="translate(104.78125 0)"/>
      <use xlink:href="#DejaVuSans-57" transform="translate(156.875 0)"/>
      <use xlink:href="#DejaVuSans-44" transform="translate(196.078125 0)"/>
      <use xlink:href="#DejaVuSans-51" transform="translate(257.359375 0)"/>
      <use xlink:href="#DejaVuSans-46" transform="translate(320.734375 0)"/>
      <use xlink:href="#DejaVuSans-48" transform="translate(375.71875 0)"/>
      <use xlink:href="#DejaVuSans-3" transform="translate(437.25 0)"/>
      <use xlink:href="#DejaVuSans-49" transform="translate(469.03125 0)"/>
      <use xlink:href="#DejaVuSans-55" transform="translate(504.234375 0)"/>
      <use xlink:href="#DejaVuSans-52" transform="translate(543.140625 0)"/>
      <use xlink:href="#DejaVuSans-50" transform="translate(604.328125 0)"/>
      <use xlink:href="#DejaVuSans-3" transform="translate(701.734375 0)"/>
      <use xlink:href="#DejaVuSans-57" transform="translate(733.515625 0)"/>
      <use xlink:href="#DejaVuSans-4b" transform="translate(772.71875 0)"/>
      <use xlink:href="#DejaVuSans-48" transform="translate(836.09375 0)"/>
      <use xlink:href="#DejaVuSans-3" transform="translate(897.625 0)"/>
      <use xlink:href="#DejaVuSans-4f" transform="translate(929.40625 0)"/>
      <use xlink:href="#DejaVuSans-52" transform="translate(957.1875 0)"/>
      <use xlink:href="#DejaVuSans-46" transform="translate(1018.375 0)"/>
      <use xlink:href="#DejaVuSans-44" transform="translate(1073.359375 0)"/>
      <use xlink:href="#DejaVuSans-4f" transform="translate(1134.640625 0)"/>
      <use xlink:href="#DejaVuSans-3" transform="translate(1162.421875 0)"/>
      <use xlink:href="#DejaVuSans-13af" transform="translate(1194.203125 0)"/>
      <use xlink:href="#DejaVuSans-57" transform="translate(1257.1875 0)"/>
      <use xlink:href="#DejaVuSans-57" transform="translate(1296.390625 0)"/>
      <use xlink:href="#DejaVuSans-48" transform="translate(1335.59375 0)"/>
      <use xlink:href="#DejaVuSans-47" transform="translate(1397.125 0)"/>
      <use xlink:href="#DejaVuSans-3" transform="translate(1460.609375 0)"/>
      <use xlink:href="#DejaVuSans-59" transform="translate(1492.390625 0)"/>
      <use xlink:href="#DejaVuSans-44" transform="translate(1551.578125 0)"/>
      <use xlink:href="#DejaVuSans-4f" transform="translate(1612.859375 0)"/>
      <use xlink:href="#DejaVuSans-58" transform="translate(1640.640625 0)"/>
      <use xlink:href="#DejaVuSans-48" transform="translate(1704.015625 0)"/>
     </g>
    </g>
   </g>
   <g id="matplotlib.axis_2">
    <g id="ytick_1">
     <g id="line2d_10">
      <path d="M 51.651523 219.198622
L 519.59952 219.198622
" clip-path="url(#pe475bdabf7)" style="fill: none; stroke: #454a52; stroke-opacity: 0.5; stroke-width: 0.8; stroke-linecap: square"/>
     </g>
     <g id="line2d_11">
      <defs>
       <path id="m3932cf3b7b" d="M 0 0
L -3.5 0
" style="stroke: #edf0f2; stroke-width: 0.8"/>
      </defs>
      <g>
       <use xlink:href="#m3932cf3b7b" x="51.651523" y="219.198622" style="fill: #edf0f2; stroke: #edf0f2; stroke-width: 0.8"/>
      </g>
     </g>
     <g id="text_11">
      <!-- 0 -->
      <g style="fill: #edf0f2" transform="translate(37.334648 223.567274) scale(0.115 -0.115)">
       <use xlink:href="#DejaVuSans-13"/>
      </g>
     </g>
    </g>
    <g id="ytick_2">
     <g id="line2d_12">
      <path d="M 51.651523 181.958092
L 519.59952 181.958092
" clip-path="url(#pe475bdabf7)" style="fill: none; stroke: #454a52; stroke-opacity: 0.5; stroke-width: 0.8; stroke-linecap: square"/>
     </g>
     <g id="line2d_13">
      <g>
       <use xlink:href="#m3932cf3b7b" x="51.651523" y="181.958092" style="fill: #edf0f2; stroke: #edf0f2; stroke-width: 0.8"/>
      </g>
     </g>
     <g id="text_12">
      <!-- 20 -->
      <g style="fill: #edf0f2" transform="translate(30.017773 186.326745) scale(0.115 -0.115)">
       <use xlink:href="#DejaVuSans-15"/>
       <use xlink:href="#DejaVuSans-13" transform="translate(63.625 0)"/>
      </g>
     </g>
    </g>
    <g id="ytick_3">
     <g id="line2d_14">
      <path d="M 51.651523 144.717563
L 519.59952 144.717563
" clip-path="url(#pe475bdabf7)" style="fill: none; stroke: #454a52; stroke-opacity: 0.5; stroke-width: 0.8; stroke-linecap: square"/>
     </g>
     <g id="line2d_15">
      <g>
       <use xlink:href="#m3932cf3b7b" x="51.651523" y="144.717563" style="fill: #edf0f2; stroke: #edf0f2; stroke-width: 0.8"/>
      </g>
     </g>
     <g id="text_13">
      <!-- 40 -->
      <g style="fill: #edf0f2" transform="translate(30.017773 149.086216) scale(0.115 -0.115)">
       <defs>
        <path id="DejaVuSans-17" d="M 2419 4116
L 825 1625
L 2419 1625
L 2419 4116
z
M 2253 4666
L 3047 4666
L 3047 1625
L 3713 1625
L 3713 1100
L 3047 1100
L 3047 0
L 2419 0
L 2419 1100
L 313 1100
L 313 1709
L 2253 4666
z
" transform="scale(0.015625)"/>
       </defs>
       <use xlink:href="#DejaVuSans-17"/>
       <use xlink:href="#DejaVuSans-13" transform="translate(63.625 0)"/>
      </g>
     </g>
    </g>
    <g id="ytick_4">
     <g id="line2d_16">
      <path d="M 51.651523 107.477034
L 519.59952 107.477034
" clip-path="url(#pe475bdabf7)" style="fill: none; stroke: #454a52; stroke-opacity: 0.5; stroke-width: 0.8; stroke-linecap: square"/>
     </g>
     <g id="line2d_17">
      <g>
       <use xlink:href="#m3932cf3b7b" x="51.651523" y="107.477034" style="fill: #edf0f2; stroke: #edf0f2; stroke-width: 0.8"/>
      </g>
     </g>
     <g id="text_14">
      <!-- 60 -->
      <g style="fill: #edf0f2" transform="translate(30.017773 111.845687) scale(0.115 -0.115)">
       <defs>
        <path id="DejaVuSans-19" d="M 2113 2584
Q 1688 2584 1439 2293
Q 1191 2003 1191 1497
Q 1191 994 1439 701
Q 1688 409 2113 409
Q 2538 409 2786 701
Q 3034 994 3034 1497
Q 3034 2003 2786 2293
Q 2538 2584 2113 2584
z
M 3366 4563
L 3366 3988
Q 3128 4100 2886 4159
Q 2644 4219 2406 4219
Q 1781 4219 1451 3797
Q 1122 3375 1075 2522
Q 1259 2794 1537 2939
Q 1816 3084 2150 3084
Q 2853 3084 3261 2657
Q 3669 2231 3669 1497
Q 3669 778 3244 343
Q 2819 -91 2113 -91
Q 1303 -91 875 529
Q 447 1150 447 2328
Q 447 3434 972 4092
Q 1497 4750 2381 4750
Q 2619 4750 2861 4703
Q 3103 4656 3366 4563
z
" transform="scale(0.015625)"/>
       </defs>
       <use xlink:href="#DejaVuSans-19"/>
       <use xlink:href="#DejaVuSans-13" transform="translate(63.625 0)"/>
      </g>
     </g>
    </g>
    <g id="ytick_5">
     <g id="line2d_18">
      <path d="M 51.651523 70.236505
L 519.59952 70.236505
" clip-path="url(#pe475bdabf7)" style="fill: none; stroke: #454a52; stroke-opacity: 0.5; stroke-width: 0.8; stroke-linecap: square"/>
     </g>
     <g id="line2d_19">
      <g>
       <use xlink:href="#m3932cf3b7b" x="51.651523" y="70.236505" style="fill: #edf0f2; stroke: #edf0f2; stroke-width: 0.8"/>
      </g>
     </g>
     <g id="text_15">
      <!-- 80 -->
      <g style="fill: #edf0f2" transform="translate(30.017773 74.605157) scale(0.115 -0.115)">
       <defs>
        <path id="DejaVuSans-1b" d="M 2034 2216
Q 1584 2216 1326 1975
Q 1069 1734 1069 1313
Q 1069 891 1326 650
Q 1584 409 2034 409
Q 2484 409 2743 651
Q 3003 894 3003 1313
Q 3003 1734 2745 1975
Q 2488 2216 2034 2216
z
M 1403 2484
Q 997 2584 770 2862
Q 544 3141 544 3541
Q 544 4100 942 4425
Q 1341 4750 2034 4750
Q 2731 4750 3128 4425
Q 3525 4100 3525 3541
Q 3525 3141 3298 2862
Q 3072 2584 2669 2484
Q 3125 2378 3379 2068
Q 3634 1759 3634 1313
Q 3634 634 3220 271
Q 2806 -91 2034 -91
Q 1263 -91 848 271
Q 434 634 434 1313
Q 434 1759 690 2068
Q 947 2378 1403 2484
z
M 1172 3481
Q 1172 3119 1398 2916
Q 1625 2713 2034 2713
Q 2441 2713 2670 2916
Q 2900 3119 2900 3481
Q 2900 3844 2670 4047
Q 2441 4250 2034 4250
Q 1625 4250 1398 4047
Q 1172 3844 1172 3481
z
" transform="scale(0.015625)"/>
       </defs>
       <use xlink:href="#DejaVuSans-1b"/>
       <use xlink:href="#DejaVuSans-13" transform="translate(63.625 0)"/>
      </g>
     </g>
    </g>
    <g id="ytick_6">
     <g id="line2d_20">
      <path d="M 51.651523 32.995976
L 519.59952 32.995976
" clip-path="url(#pe475bdabf7)" style="fill: none; stroke: #454a52; stroke-opacity: 0.5; stroke-width: 0.8; stroke-linecap: square"/>
     </g>
     <g id="line2d_21">
      <g>
       <use xlink:href="#m3932cf3b7b" x="51.651523" y="32.995976" style="fill: #edf0f2; stroke: #edf0f2; stroke-width: 0.8"/>
      </g>
     </g>
     <g id="text_16">
      <!-- 100 -->
      <g style="fill: #edf0f2" transform="translate(22.700898 37.364628) scale(0.115 -0.115)">
       <use xlink:href="#DejaVuSans-14"/>
       <use xlink:href="#DejaVuSans-13" transform="translate(63.625 0)"/>
       <use xlink:href="#DejaVuSans-13" transform="translate(127.25 0)"/>
      </g>
     </g>
    </g>
    <g id="text_17">
     <!-- Relative weight, % -->
     <g style="fill: #edf0f2" transform="translate(15.938203 174.963951) rotate(-90) scale(0.115 -0.115)">
      <defs>
       <path id="DejaVuSans-35" d="M 2841 2188
Q 3044 2119 3236 1894
Q 3428 1669 3622 1275
L 4263 0
L 3584 0
L 2988 1197
Q 2756 1666 2539 1819
Q 2322 1972 1947 1972
L 1259 1972
L 1259 0
L 628 0
L 628 4666
L 2053 4666
Q 2853 4666 3247 4331
Q 3641 3997 3641 3322
Q 3641 2881 3436 2590
Q 3231 2300 2841 2188
z
M 1259 4147
L 1259 2491
L 2053 2491
Q 2509 2491 2742 2702
Q 2975 2913 2975 3322
Q 2975 3731 2742 3939
Q 2509 4147 2053 4147
L 1259 4147
z
" transform="scale(0.015625)"/>
       <path id="DejaVuSans-5a" d="M 269 3500
L 844 3500
L 1563 769
L 2278 3500
L 2956 3500
L 3675 769
L 4391 3500
L 4966 3500
L 4050 0
L 3372 0
L 2619 2869
L 1863 0
L 1184 0
L 269 3500
z
" transform="scale(0.015625)"/>
       <path id="DejaVuSans-4a" d="M 2906 1791
Q 2906 2416 2648 2759
Q 2391 3103 1925 3103
Q 1463 3103 1205 2759
Q 947 2416 947 1791
Q 947 1169 1205 825
Q 1463 481 1925 481
Q 2391 481 2648 825
Q 2906 1169 2906 1791
z
M 3481 434
Q 3481 -459 3084 -895
Q 2688 -1331 1869 -1331
Q 1566 -1331 1297 -1286
Q 1028 -1241 775 -1147
L 775 -588
Q 1028 -725 1275 -790
Q 1522 -856 1778 -856
Q 2344 -856 2625 -561
Q 2906 -266 2906 331
L 2906 616
Q 2728 306 2450 153
Q 2172 0 1784 0
Q 1141 0 747 490
Q 353 981 353 1791
Q 353 2603 747 3093
Q 1141 3584 1784 3584
Q 2172 3584 2450 3431
Q 2728 3278 2906 2969
L 2906 3500
L 3481 3500
L 3481 434
z
" transform="scale(0.015625)"/>
       <path id="DejaVuSans-f" d="M 750 794
L 1409 794
L 1409 256
L 897 -744
L 494 -744
L 750 256
L 750 794
z
" transform="scale(0.015625)"/>
       <path id="DejaVuSans-8" d="M 4653 2053
Q 4381 2053 4226 1822
Q 4072 1591 4072 1178
Q 4072 772 4226 539
Q 4381 306 4653 306
Q 4919 306 5073 539
Q 5228 772 5228 1178
Q 5228 1588 5073 1820
Q 4919 2053 4653 2053
z
M 4653 2450
Q 5147 2450 5437 2106
Q 5728 1763 5728 1178
Q 5728 594 5436 251
Q 5144 -91 4653 -91
Q 4153 -91 3862 251
Q 3572 594 3572 1178
Q 3572 1766 3864 2108
Q 4156 2450 4653 2450
z
M 1428 4353
Q 1159 4353 1004 4120
Q 850 3888 850 3481
Q 850 3069 1003 2837
Q 1156 2606 1428 2606
Q 1700 2606 1854 2837
Q 2009 3069 2009 3481
Q 2009 3884 1853 4118
Q 1697 4353 1428 4353
z
M 4250 4750
L 4750 4750
L 1831 -91
L 1331 -91
L 4250 4750
z
M 1428 4750
Q 1922 4750 2215 4408
Q 2509 4066 2509 3481
Q 2509 2891 2217 2550
Q 1925 2209 1428 2209
Q 931 2209 642 2551
Q 353 2894 353 3481
Q 353 4063 643 4406
Q 934 4750 1428 4750
z
" transform="scale(0.015625)"/>
      </defs>
      <use xlink:href="#DejaVuSans-35"/>
      <use xlink:href="#DejaVuSans-48" transform="translate(65 0)"/>
      <use xlink:href="#DejaVuSans-4f" transform="translate(126.53125 0)"/>
      <use xlink:href="#DejaVuSans-44" transform="translate(154.3125 0)"/>
      <use xlink:href="#DejaVuSans-57" transform="translate(215.59375 0)"/>
      <use xlink:href="#DejaVuSans-4c" transform="translate(254.796875 0)"/>
      <use xlink:href="#DejaVuSans-59" transform="translate(282.578125 0)"/>
      <use xlink:href="#DejaVuSans-48" transform="translate(341.765625 0)"/>
      <use xlink:href="#DejaVuSans-3" transform="translate(403.296875 0)"/>
      <use xlink:href="#DejaVuSans-5a" transform="translate(435.078125 0)"/>
      <use xlink:href="#DejaVuSans-48" transform="translate(516.859375 0)"/>
      <use xlink:href="#DejaVuSans-4c" transform="translate(578.390625 0)"/>
      <use xlink:href="#DejaVuSans-4a" transform="translate(606.171875 0)"/>
      <use xlink:href="#DejaVuSans-4b" transform="translate(669.65625 0)"/>
      <use xlink:href="#DejaVuSans-57" transform="translate(733.03125 0)"/>
      <use xlink:href="#DejaVuSans-f" transform="translate(772.234375 0)"/>
      <use xlink:href="#DejaVuSans-3" transform="translate(804.015625 0)"/>
      <use xlink:href="#DejaVuSans-8" transform="translate(835.796875 0)"/>
     </g>
    </g>
   </g>
   <g id="line2d_22">
    <path d="M 72.921887 32.99617
L 78.026774 33.117014
L 83.131661 33.460176
L 88.236549 34.023442
L 93.341436 34.803196
L 98.446323 35.794463
L 103.55121 36.990975
L 109.506912 38.636262
L 115.462614 40.53687
L 121.418316 42.677144
L 127.374017 45.039828
L 134.180534 47.988496
L 140.98705 51.173998
L 148.644381 55.002695
L 157.152526 59.508923
L 167.362301 65.183701
L 180.975333 73.036926
L 215.007915 92.800206
L 226.919319 99.401928
L 237.979908 105.273075
L 248.189682 110.437058
L 258.399456 115.336012
L 267.758416 119.585254
L 277.117376 123.601299
L 286.476336 127.386465
L 295.835296 130.946516
L 306.045071 134.583327
L 316.254845 137.975483
L 326.46462 141.137851
L 337.525209 144.322596
L 348.585798 147.276082
L 360.497201 150.220553
L 372.408605 152.94267
L 385.170823 155.636855
L 398.783855 158.283494
L 413.247703 160.866999
L 428.562364 163.37548
L 444.727841 165.800294
L 462.594946 168.246957
L 481.312866 170.580877
L 498.329157 172.524567
L 498.329157 172.524567
" clip-path="url(#pe475bdabf7)" style="fill: none; stroke: #8ab4f8; stroke-width: 2.5; stroke-linecap: square"/>
   </g>
   <g id="line2d_23">
    <path d="M 72.921887 32.996025
L 83.131661 33.112222
L 93.341436 33.450767
L 103.55121 34.009477
L 113.760985 34.784765
L 123.970759 35.771683
L 135.031348 37.072393
L 146.091937 38.604583
L 157.152526 40.357168
L 169.06393 42.476721
L 180.975333 44.820283
L 193.737551 47.558815
L 207.350584 50.712836
L 221.814431 54.294051
L 237.979908 58.531995
L 256.697827 63.683017
L 279.66982 70.250911
L 370.706976 96.545898
L 391.977339 102.315054
L 411.546074 107.401884
L 430.263993 112.048608
L 448.981913 116.469066
L 467.699833 120.657364
L 486.417753 124.612688
L 498.329157 127.00978
L 498.329157 127.00978
" clip-path="url(#pe475bdabf7)" style="fill: none; stroke: #80cbc4; stroke-width: 2.5; stroke-linecap: square"/>
   </g>
   <g id="line2d_24">
    <path d="M 72.921887 32.996007
L 85.684105 33.111275
L 98.446323 33.448897
L 111.208541 34.006696
L 123.970759 34.78109
L 136.732977 35.767137
L 150.34601 37.045161
L 163.959043 38.547792
L 178.42289 40.378625
L 192.886737 42.43685
L 208.201399 44.846535
L 224.366875 47.625335
L 241.383166 50.784291
L 259.250271 54.326592
L 279.66982 58.612073
L 302.641813 63.671064
L 331.569507 70.287912
L 394.529783 85.012504
L 430.263993 93.208129
L 458.340873 99.424984
L 483.865309 104.853399
L 498.329157 107.822625
L 498.329157 107.822625
" clip-path="url(#pe475bdabf7)" style="fill: none; stroke: #f0b56b; stroke-width: 2.5; stroke-linecap: square"/>
   </g>
   <g id="patch_3">
    <path d="M 51.651523 219.198622
L 51.651523 23.685844
" style="fill: none; stroke: #454a52; stroke-width: 0.8; stroke-linejoin: miter; stroke-linecap: square"/>
   </g>
   <g id="patch_4">
    <path d="M 51.651523 219.198622
L 519.59952 219.198622
" style="fill: none; stroke: #454a52; stroke-width: 0.8; stroke-linejoin: miter; stroke-linecap: square"/>
   </g>
   <g id="text_18">
    <!-- Smaller H reduces an unusual value's weight sooner -->
    <g style="fill: #edf0f2" transform="translate(104.594319 17.685844) scale(0.138 -0.138)">
     <defs>
      <path id="DejaVuSans-36" d="M 3425 4513
L 3425 3897
Q 3066 4069 2747 4153
Q 2428 4238 2131 4238
Q 1616 4238 1336 4038
Q 1056 3838 1056 3469
Q 1056 3159 1242 3001
Q 1428 2844 1947 2747
L 2328 2669
Q 3034 2534 3370 2195
Q 3706 1856 3706 1288
Q 3706 609 3251 259
Q 2797 -91 1919 -91
Q 1588 -91 1214 -16
Q 841 59 441 206
L 441 856
Q 825 641 1194 531
Q 1563 422 1919 422
Q 2459 422 2753 634
Q 3047 847 3047 1241
Q 3047 1584 2836 1778
Q 2625 1972 2144 2069
L 1759 2144
Q 1053 2284 737 2584
Q 422 2884 422 3419
Q 422 4038 858 4394
Q 1294 4750 2059 4750
Q 2388 4750 2728 4690
Q 3069 4631 3425 4513
z
" transform="scale(0.015625)"/>
      <path id="DejaVuSans-2b" d="M 628 4666
L 1259 4666
L 1259 2753
L 3553 2753
L 3553 4666
L 4184 4666
L 4184 0
L 3553 0
L 3553 2222
L 1259 2222
L 1259 0
L 628 0
L 628 4666
z
" transform="scale(0.015625)"/>
      <path id="DejaVuSans-a" d="M 1147 4666
L 1147 2931
L 616 2931
L 616 4666
L 1147 4666
z
" transform="scale(0.015625)"/>
     </defs>
     <use xlink:href="#DejaVuSans-36"/>
     <use xlink:href="#DejaVuSans-50" transform="translate(63.484375 0)"/>
     <use xlink:href="#DejaVuSans-44" transform="translate(160.890625 0)"/>
     <use xlink:href="#DejaVuSans-4f" transform="translate(222.171875 0)"/>
     <use xlink:href="#DejaVuSans-4f" transform="translate(249.953125 0)"/>
     <use xlink:href="#DejaVuSans-48" transform="translate(277.734375 0)"/>
     <use xlink:href="#DejaVuSans-55" transform="translate(339.265625 0)"/>
     <use xlink:href="#DejaVuSans-3" transform="translate(380.375 0)"/>
     <use xlink:href="#DejaVuSans-2b" transform="translate(412.15625 0)"/>
     <use xlink:href="#DejaVuSans-3" transform="translate(487.359375 0)"/>
     <use xlink:href="#DejaVuSans-55" transform="translate(519.140625 0)"/>
     <use xlink:href="#DejaVuSans-48" transform="translate(558.046875 0)"/>
     <use xlink:href="#DejaVuSans-47" transform="translate(619.578125 0)"/>
     <use xlink:href="#DejaVuSans-58" transform="translate(683.0625 0)"/>
     <use xlink:href="#DejaVuSans-46" transform="translate(746.4375 0)"/>
     <use xlink:href="#DejaVuSans-48" transform="translate(801.421875 0)"/>
     <use xlink:href="#DejaVuSans-56" transform="translate(862.953125 0)"/>
     <use xlink:href="#DejaVuSans-3" transform="translate(915.046875 0)"/>
     <use xlink:href="#DejaVuSans-44" transform="translate(946.828125 0)"/>
     <use xlink:href="#DejaVuSans-51" transform="translate(1008.109375 0)"/>
     <use xlink:href="#DejaVuSans-3" transform="translate(1071.484375 0)"/>
     <use xlink:href="#DejaVuSans-58" transform="translate(1103.265625 0)"/>
     <use xlink:href="#DejaVuSans-51" transform="translate(1166.640625 0)"/>
     <use xlink:href="#DejaVuSans-58" transform="translate(1230.015625 0)"/>
     <use xlink:href="#DejaVuSans-56" transform="translate(1293.390625 0)"/>
     <use xlink:href="#DejaVuSans-58" transform="translate(1345.484375 0)"/>
     <use xlink:href="#DejaVuSans-44" transform="translate(1408.859375 0)"/>
     <use xlink:href="#DejaVuSans-4f" transform="translate(1470.140625 0)"/>
     <use xlink:href="#DejaVuSans-3" transform="translate(1497.921875 0)"/>
     <use xlink:href="#DejaVuSans-59" transform="translate(1529.703125 0)"/>
     <use xlink:href="#DejaVuSans-44" transform="translate(1588.890625 0)"/>
     <use xlink:href="#DejaVuSans-4f" transform="translate(1650.171875 0)"/>
     <use xlink:href="#DejaVuSans-58" transform="translate(1677.953125 0)"/>
     <use xlink:href="#DejaVuSans-48" transform="translate(1741.328125 0)"/>
     <use xlink:href="#DejaVuSans-a" transform="translate(1802.859375 0)"/>
     <use xlink:href="#DejaVuSans-56" transform="translate(1830.34375 0)"/>
     <use xlink:href="#DejaVuSans-3" transform="translate(1882.4375 0)"/>
     <use xlink:href="#DejaVuSans-5a" transform="translate(1914.21875 0)"/>
     <use xlink:href="#DejaVuSans-48" transform="translate(1996 0)"/>
     <use xlink:href="#DejaVuSans-4c" transform="translate(2057.53125 0)"/>
     <use xlink:href="#DejaVuSans-4a" transform="translate(2085.3125 0)"/>
     <use xlink:href="#DejaVuSans-4b" transform="translate(2148.796875 0)"/>
     <use xlink:href="#DejaVuSans-57" transform="translate(2212.171875 0)"/>
     <use xlink:href="#DejaVuSans-3" transform="translate(2251.375 0)"/>
     <use xlink:href="#DejaVuSans-56" transform="translate(2283.15625 0)"/>
     <use xlink:href="#DejaVuSans-52" transform="translate(2335.25 0)"/>
     <use xlink:href="#DejaVuSans-52" transform="translate(2396.4375 0)"/>
     <use xlink:href="#DejaVuSans-51" transform="translate(2457.625 0)"/>
     <use xlink:href="#DejaVuSans-48" transform="translate(2521 0)"/>
     <use xlink:href="#DejaVuSans-55" transform="translate(2582.53125 0)"/>
    </g>
   </g>
   <g id="legend_1">
    <g id="patch_5">
     <path d="M 59.701523 213.448622
L 235.277773 213.448622
Q 237.577773 213.448622 237.577773 211.148622
L 237.577773 160.545926
Q 237.577773 158.245926 235.277773 158.245926
L 59.701523 158.245926
Q 57.401523 158.245926 57.401523 160.545926
L 57.401523 211.148622
Q 57.401523 213.448622 59.701523 213.448622
z
" style="fill: #292c31; opacity: 0.8; stroke: #454a52; stroke-linejoin: miter"/>
    </g>
    <g id="line2d_25">
     <path d="M 62.001523 167.559129
L 73.501523 167.559129
L 85.001523 167.559129
" style="fill: none; stroke: #8ab4f8; stroke-width: 2.5; stroke-linecap: square"/>
    </g>
    <g id="text_19">
     <!-- My GD: H = 0.4 -->
     <g style="fill: #edf0f2" transform="translate(94.201523 171.584129) scale(0.115 -0.115)">
      <defs>
       <path id="DejaVuSans-30" d="M 628 4666
L 1569 4666
L 2759 1491
L 3956 4666
L 4897 4666
L 4897 0
L 4281 0
L 4281 4097
L 3078 897
L 2444 897
L 1241 4097
L 1241 0
L 628 0
L 628 4666
z
" transform="scale(0.015625)"/>
       <path id="DejaVuSans-5c" d="M 2059 -325
Q 1816 -950 1584 -1140
Q 1353 -1331 966 -1331
L 506 -1331
L 506 -850
L 844 -850
Q 1081 -850 1212 -737
Q 1344 -625 1503 -206
L 1606 56
L 191 3500
L 800 3500
L 1894 763
L 2988 3500
L 3597 3500
L 2059 -325
z
" transform="scale(0.015625)"/>
       <path id="DejaVuSans-2a" d="M 3809 666
L 3809 1919
L 2778 1919
L 2778 2438
L 4434 2438
L 4434 434
Q 4069 175 3628 42
Q 3188 -91 2688 -91
Q 1594 -91 976 548
Q 359 1188 359 2328
Q 359 3472 976 4111
Q 1594 4750 2688 4750
Q 3144 4750 3555 4637
Q 3966 4525 4313 4306
L 4313 3634
Q 3963 3931 3569 4081
Q 3175 4231 2741 4231
Q 1884 4231 1454 3753
Q 1025 3275 1025 2328
Q 1025 1384 1454 906
Q 1884 428 2741 428
Q 3075 428 3337 486
Q 3600 544 3809 666
z
" transform="scale(0.015625)"/>
       <path id="DejaVuSans-1d" d="M 750 794
L 1409 794
L 1409 0
L 750 0
L 750 794
z
M 750 3309
L 1409 3309
L 1409 2516
L 750 2516
L 750 3309
z
" transform="scale(0.015625)"/>
       <path id="DejaVuSans-20" d="M 678 2906
L 4684 2906
L 4684 2381
L 678 2381
L 678 2906
z
M 678 1631
L 4684 1631
L 4684 1100
L 678 1100
L 678 1631
z
" transform="scale(0.015625)"/>
      </defs>
      <use xlink:href="#DejaVuSans-30"/>
      <use xlink:href="#DejaVuSans-5c" transform="translate(86.28125 0)"/>
      <use xlink:href="#DejaVuSans-3" transform="translate(145.46875 0)"/>
      <use xlink:href="#DejaVuSans-2a" transform="translate(177.25 0)"/>
      <use xlink:href="#DejaVuSans-27" transform="translate(254.734375 0)"/>
      <use xlink:href="#DejaVuSans-1d" transform="translate(331.734375 0)"/>
      <use xlink:href="#DejaVuSans-3" transform="translate(365.421875 0)"/>
      <use xlink:href="#DejaVuSans-2b" transform="translate(397.203125 0)"/>
      <use xlink:href="#DejaVuSans-3" transform="translate(472.40625 0)"/>
      <use xlink:href="#DejaVuSans-20" transform="translate(504.1875 0)"/>
      <use xlink:href="#DejaVuSans-3" transform="translate(587.984375 0)"/>
      <use xlink:href="#DejaVuSans-13" transform="translate(619.765625 0)"/>
      <use xlink:href="#DejaVuSans-11" transform="translate(683.390625 0)"/>
      <use xlink:href="#DejaVuSans-17" transform="translate(715.171875 0)"/>
     </g>
    </g>
    <g id="line2d_26">
     <path d="M 62.001523 184.810028
L 73.501523 184.810028
L 85.001523 184.810028
" style="fill: none; stroke: #80cbc4; stroke-width: 2.5; stroke-linecap: square"/>
    </g>
    <g id="text_20">
     <!-- Later notebook: H = 0.8 -->
     <g style="fill: #edf0f2" transform="translate(94.201523 188.835028) scale(0.115 -0.115)">
      <defs>
       <path id="DejaVuSans-2f" d="M 628 4666
L 1259 4666
L 1259 531
L 3531 531
L 3531 0
L 628 0
L 628 4666
z
" transform="scale(0.015625)"/>
       <path id="DejaVuSans-45" d="M 3116 1747
Q 3116 2381 2855 2742
Q 2594 3103 2138 3103
Q 1681 3103 1420 2742
Q 1159 2381 1159 1747
Q 1159 1113 1420 752
Q 1681 391 2138 391
Q 2594 391 2855 752
Q 3116 1113 3116 1747
z
M 1159 2969
Q 1341 3281 1617 3432
Q 1894 3584 2278 3584
Q 2916 3584 3314 3078
Q 3713 2572 3713 1747
Q 3713 922 3314 415
Q 2916 -91 2278 -91
Q 1894 -91 1617 61
Q 1341 213 1159 525
L 1159 0
L 581 0
L 581 4863
L 1159 4863
L 1159 2969
z
" transform="scale(0.015625)"/>
       <path id="DejaVuSans-4e" d="M 581 4863
L 1159 4863
L 1159 1991
L 2875 3500
L 3609 3500
L 1753 1863
L 3688 0
L 2938 0
L 1159 1709
L 1159 0
L 581 0
L 581 4863
z
" transform="scale(0.015625)"/>
      </defs>
      <use xlink:href="#DejaVuSans-2f"/>
      <use xlink:href="#DejaVuSans-44" transform="translate(55.71875 0)"/>
      <use xlink:href="#DejaVuSans-57" transform="translate(117 0)"/>
      <use xlink:href="#DejaVuSans-48" transform="translate(156.203125 0)"/>
      <use xlink:href="#DejaVuSans-55" transform="translate(217.734375 0)"/>
      <use xlink:href="#DejaVuSans-3" transform="translate(258.84375 0)"/>
      <use xlink:href="#DejaVuSans-51" transform="translate(290.625 0)"/>
      <use xlink:href="#DejaVuSans-52" transform="translate(354 0)"/>
      <use xlink:href="#DejaVuSans-57" transform="translate(415.1875 0)"/>
      <use xlink:href="#DejaVuSans-48" transform="translate(454.390625 0)"/>
      <use xlink:href="#DejaVuSans-45" transform="translate(515.921875 0)"/>
      <use xlink:href="#DejaVuSans-52" transform="translate(579.40625 0)"/>
      <use xlink:href="#DejaVuSans-52" transform="translate(640.59375 0)"/>
      <use xlink:href="#DejaVuSans-4e" transform="translate(701.78125 0)"/>
      <use xlink:href="#DejaVuSans-1d" transform="translate(759.6875 0)"/>
      <use xlink:href="#DejaVuSans-3" transform="translate(793.375 0)"/>
      <use xlink:href="#DejaVuSans-2b" transform="translate(825.15625 0)"/>
      <use xlink:href="#DejaVuSans-3" transform="translate(900.359375 0)"/>
      <use xlink:href="#DejaVuSans-20" transform="translate(932.140625 0)"/>
      <use xlink:href="#DejaVuSans-3" transform="translate(1015.9375 0)"/>
      <use xlink:href="#DejaVuSans-13" transform="translate(1047.71875 0)"/>
      <use xlink:href="#DejaVuSans-11" transform="translate(1111.34375 0)"/>
      <use xlink:href="#DejaVuSans-1b" transform="translate(1143.125 0)"/>
     </g>
    </g>
    <g id="line2d_27">
     <path d="M 62.001523 202.060926
L 73.501523 202.060926
L 85.001523 202.060926
" style="fill: none; stroke: #f0b56b; stroke-width: 2.5; stroke-linecap: square"/>
    </g>
    <g id="text_21">
     <!-- QuantLet: H = 1.0 -->
     <g style="fill: #edf0f2" transform="translate(94.201523 206.085926) scale(0.115 -0.115)">
      <defs>
       <path id="DejaVuSans-34" d="M 2522 4238
Q 1834 4238 1429 3725
Q 1025 3213 1025 2328
Q 1025 1447 1429 934
Q 1834 422 2522 422
Q 3209 422 3611 934
Q 4013 1447 4013 2328
Q 4013 3213 3611 3725
Q 3209 4238 2522 4238
z
M 3406 84
L 4238 -825
L 3475 -825
L 2784 -78
Q 2681 -84 2626 -87
Q 2572 -91 2522 -91
Q 1538 -91 948 567
Q 359 1225 359 2328
Q 359 3434 948 4092
Q 1538 4750 2522 4750
Q 3503 4750 4090 4092
Q 4678 3434 4678 2328
Q 4678 1516 4351 937
Q 4025 359 3406 84
z
" transform="scale(0.015625)"/>
      </defs>
      <use xlink:href="#DejaVuSans-34"/>
      <use xlink:href="#DejaVuSans-58" transform="translate(78.71875 0)"/>
      <use xlink:href="#DejaVuSans-44" transform="translate(142.09375 0)"/>
      <use xlink:href="#DejaVuSans-51" transform="translate(203.375 0)"/>
      <use xlink:href="#DejaVuSans-57" transform="translate(266.75 0)"/>
      <use xlink:href="#DejaVuSans-2f" transform="translate(305.953125 0)"/>
      <use xlink:href="#DejaVuSans-48" transform="translate(359.921875 0)"/>
      <use xlink:href="#DejaVuSans-57" transform="translate(421.453125 0)"/>
      <use xlink:href="#DejaVuSans-1d" transform="translate(460.65625 0)"/>
      <use xlink:href="#DejaVuSans-3" transform="translate(494.34375 0)"/>
      <use xlink:href="#DejaVuSans-2b" transform="translate(526.125 0)"/>
      <use xlink:href="#DejaVuSans-3" transform="translate(601.328125 0)"/>
      <use xlink:href="#DejaVuSans-20" transform="translate(633.109375 0)"/>
      <use xlink:href="#DejaVuSans-3" transform="translate(716.90625 0)"/>
      <use xlink:href="#DejaVuSans-14" transform="translate(748.6875 0)"/>
      <use xlink:href="#DejaVuSans-11" transform="translate(812.3125 0)"/>
      <use xlink:href="#DejaVuSans-13" transform="translate(844.09375 0)"/>
     </g>
    </g>
   </g>
  </g>
 </g>
 <defs>
  <clipPath id="pe475bdabf7">
   <rect x="51.651523" y="23.685844" width="467.947997" height="195.512778"/>
  </clipPath>
 </defs>
</svg>
